<svg width="91" height="10" viewBox="0 0 91 10" fill="none" xmlns="http://www.w3.org/2000/svg">
<path d="M5.28516 6.13477H6.46875V7.01953H5.28516V9H4.19531V7.01953H0.310547V6.38086L4.13086 0.46875H5.28516V6.13477ZM1.54102 6.13477H4.19531V1.95117L4.06641 2.18555L1.54102 6.13477ZM7.78203 8.43164C7.78203 8.24414 7.83672 8.08789 7.94609 7.96289C8.05937 7.83789 8.22734 7.77539 8.45 7.77539C8.67266 7.77539 8.84062 7.83789 8.95391 7.96289C9.07109 8.08789 9.12969 8.24414 9.12969 8.43164C9.12969 8.61133 9.07109 8.76172 8.95391 8.88281C8.84062 9.00391 8.67266 9.06445 8.45 9.06445C8.22734 9.06445 8.05937 9.00391 7.94609 8.88281C7.83672 8.76172 7.78203 8.61133 7.78203 8.43164ZM16.1852 2.69531C16.1852 3.12109 16.0719 3.5 15.8453 3.83203C15.6227 4.16406 15.3199 4.42383 14.9371 4.61133C15.3824 4.80273 15.734 5.08203 15.9918 5.44922C16.2535 5.81641 16.3844 6.23242 16.3844 6.69727C16.3844 7.43555 16.1344 8.02344 15.6344 8.46094C15.1383 8.89844 14.484 9.11719 13.6715 9.11719C12.8512 9.11719 12.193 8.89844 11.6969 8.46094C11.2047 8.01953 10.9586 7.43164 10.9586 6.69727C10.9586 6.23633 11.0836 5.82031 11.3336 5.44922C11.5875 5.07812 11.9371 4.79688 12.3824 4.60547C12.0035 4.41797 11.7047 4.1582 11.4859 3.82617C11.2672 3.49414 11.1578 3.11719 11.1578 2.69531C11.1578 1.97656 11.3883 1.40625 11.8492 0.984375C12.3102 0.5625 12.9176 0.351562 13.6715 0.351562C14.4215 0.351562 15.027 0.5625 15.4879 0.984375C15.9527 1.40625 16.1852 1.97656 16.1852 2.69531ZM15.3004 6.67383C15.3004 6.19727 15.148 5.80859 14.8434 5.50781C14.5426 5.20703 14.148 5.05664 13.6598 5.05664C13.1715 5.05664 12.7789 5.20508 12.482 5.50195C12.1891 5.79883 12.0426 6.18945 12.0426 6.67383C12.0426 7.1582 12.1852 7.53906 12.4703 7.81641C12.7594 8.09375 13.1598 8.23242 13.6715 8.23242C14.1793 8.23242 14.5777 8.09375 14.8668 7.81641C15.1559 7.53516 15.3004 7.1543 15.3004 6.67383ZM13.6715 1.24219C13.2457 1.24219 12.9 1.375 12.6344 1.64062C12.3727 1.90234 12.2418 2.25977 12.2418 2.71289C12.2418 3.14648 12.3707 3.49805 12.6285 3.76758C12.8902 4.0332 13.2379 4.16602 13.6715 4.16602C14.1051 4.16602 14.4508 4.0332 14.7086 3.76758C14.9703 3.49805 15.1012 3.14648 15.1012 2.71289C15.1012 2.2793 14.9664 1.92578 14.6969 1.65234C14.4273 1.37891 14.0855 1.24219 13.6715 1.24219ZM23.9211 5.19727C22.9562 4.91992 22.2531 4.58008 21.8117 4.17773C21.3742 3.77148 21.1555 3.27148 21.1555 2.67773C21.1555 2.00586 21.423 1.45117 21.9582 1.01367C22.4973 0.572266 23.1965 0.351562 24.0559 0.351562C24.6418 0.351562 25.1633 0.464844 25.6203 0.691406C26.0812 0.917969 26.4367 1.23047 26.6867 1.62891C26.9406 2.02734 27.0676 2.46289 27.0676 2.93555H25.9367C25.9367 2.41992 25.7727 2.01562 25.4445 1.72266C25.1164 1.42578 24.6535 1.27734 24.0559 1.27734C23.5012 1.27734 23.0676 1.40039 22.7551 1.64648C22.4465 1.88867 22.2922 2.22656 22.2922 2.66016C22.2922 3.00781 22.4387 3.30273 22.7316 3.54492C23.0285 3.7832 23.5305 4.00195 24.2375 4.20117C24.9484 4.40039 25.5031 4.62109 25.9016 4.86328C26.3039 5.10156 26.6008 5.38086 26.7922 5.70117C26.9875 6.02148 27.0852 6.39844 27.0852 6.83203C27.0852 7.52344 26.8156 8.07812 26.2766 8.49609C25.7375 8.91016 25.0168 9.11719 24.1145 9.11719C23.5285 9.11719 22.9816 9.00586 22.4738 8.7832C21.966 8.55664 21.5734 8.24805 21.2961 7.85742C21.0227 7.4668 20.8859 7.02344 20.8859 6.52734H22.0168C22.0168 7.04297 22.2062 7.45117 22.5852 7.75195C22.968 8.04883 23.4777 8.19727 24.1145 8.19727C24.7082 8.19727 25.1633 8.07617 25.4797 7.83398C25.7961 7.5918 25.9543 7.26172 25.9543 6.84375C25.9543 6.42578 25.8078 6.10352 25.5148 5.87695C25.2219 5.64648 24.6906 5.41992 23.9211 5.19727ZM30.0332 1.125V2.66016H31.2168V3.49805H30.0332V7.42969C30.0332 7.68359 30.0859 7.875 30.1914 8.00391C30.2969 8.12891 30.4766 8.19141 30.7305 8.19141C30.8555 8.19141 31.0273 8.16797 31.2461 8.12109V9C30.9609 9.07812 30.6836 9.11719 30.4141 9.11719C29.9297 9.11719 29.5645 8.9707 29.3184 8.67773C29.0723 8.38477 28.9492 7.96875 28.9492 7.42969V3.49805H27.7949V2.66016H28.9492V1.125H30.0332ZM36.6023 9C36.5398 8.875 36.4891 8.65234 36.45 8.33203C35.9461 8.85547 35.3445 9.11719 34.6453 9.11719C34.0203 9.11719 33.5066 8.94141 33.1043 8.58984C32.7059 8.23438 32.5066 7.78516 32.5066 7.24219C32.5066 6.58203 32.7566 6.07031 33.2566 5.70703C33.7605 5.33984 34.4676 5.15625 35.3777 5.15625H36.4324V4.6582C36.4324 4.2793 36.3191 3.97852 36.0926 3.75586C35.866 3.5293 35.532 3.41602 35.0906 3.41602C34.7039 3.41602 34.3797 3.51367 34.118 3.70898C33.8563 3.9043 33.7254 4.14062 33.7254 4.41797H32.6355C32.6355 4.10156 32.7469 3.79688 32.9695 3.50391C33.1961 3.20703 33.5008 2.97266 33.8836 2.80078C34.2703 2.62891 34.6941 2.54297 35.1551 2.54297C35.8855 2.54297 36.4578 2.72656 36.8719 3.09375C37.2859 3.45703 37.5008 3.95898 37.5164 4.59961V7.51758C37.5164 8.09961 37.5906 8.5625 37.7391 8.90625V9H36.6023ZM34.8035 8.17383C35.1434 8.17383 35.4656 8.08594 35.7703 7.91016C36.075 7.73438 36.2957 7.50586 36.4324 7.22461V5.92383H35.5828C34.2547 5.92383 33.5906 6.3125 33.5906 7.08984C33.5906 7.42969 33.7039 7.69531 33.9305 7.88672C34.157 8.07812 34.448 8.17383 34.8035 8.17383ZM42.4801 3.63281C42.316 3.60547 42.1383 3.5918 41.9469 3.5918C41.2359 3.5918 40.7535 3.89453 40.4996 4.5V9H39.4156V2.66016H40.4703L40.4879 3.39258C40.8434 2.82617 41.3473 2.54297 41.9996 2.54297C42.2105 2.54297 42.3707 2.57031 42.4801 2.625V3.63281ZM50.1574 5.54883H48.1535V9H47.0227V0.46875H49.8469C50.8078 0.46875 51.5461 0.6875 52.0617 1.125C52.5812 1.5625 52.841 2.19922 52.841 3.03516C52.841 3.56641 52.6965 4.0293 52.4074 4.42383C52.1223 4.81836 51.7238 5.11328 51.2121 5.30859L53.216 8.92969V9H52.009L50.1574 5.54883ZM48.1535 4.62891H49.882C50.4406 4.62891 50.884 4.48438 51.2121 4.19531C51.5441 3.90625 51.7102 3.51953 51.7102 3.03516C51.7102 2.50781 51.552 2.10352 51.2355 1.82227C50.923 1.54102 50.4699 1.39844 49.8762 1.39453H48.1535V4.62891ZM57.084 9.11719C56.2246 9.11719 55.5254 8.83594 54.9863 8.27344C54.4473 7.70703 54.1777 6.95117 54.1777 6.00586V5.80664C54.1777 5.17773 54.2969 4.61719 54.5352 4.125C54.7773 3.62891 55.1133 3.24219 55.543 2.96484C55.9766 2.68359 56.4453 2.54297 56.9492 2.54297C57.7734 2.54297 58.4141 2.81445 58.8711 3.35742C59.3281 3.90039 59.5566 4.67773 59.5566 5.68945V6.14062H55.2617C55.2773 6.76562 55.459 7.27148 55.8066 7.6582C56.1582 8.04102 56.6035 8.23242 57.1426 8.23242C57.5254 8.23242 57.8496 8.1543 58.1152 7.99805C58.3809 7.8418 58.6133 7.63477 58.8125 7.37695L59.4746 7.89258C58.9434 8.70898 58.1465 9.11719 57.084 9.11719ZM56.9492 3.43359C56.5117 3.43359 56.1445 3.59375 55.8477 3.91406C55.5508 4.23047 55.3672 4.67578 55.2969 5.25H58.4727V5.16797C58.4414 4.61719 58.293 4.19141 58.0273 3.89062C57.7617 3.58594 57.4023 3.43359 56.9492 3.43359ZM63.0262 7.5293L64.5965 2.66016H65.7039L63.4305 9H62.6043L60.3074 2.66016H61.4148L63.0262 7.5293ZM68.1246 9H67.0406V2.66016H68.1246V9ZM66.9527 0.978516C66.9527 0.802734 67.0055 0.654297 67.1109 0.533203C67.2203 0.412109 67.3805 0.351562 67.5914 0.351562C67.8023 0.351562 67.9625 0.412109 68.0719 0.533203C68.1813 0.654297 68.2359 0.802734 68.2359 0.978516C68.2359 1.1543 68.1813 1.30078 68.0719 1.41797C67.9625 1.53516 67.8023 1.59375 67.5914 1.59375C67.3805 1.59375 67.2203 1.53516 67.1109 1.41797C67.0055 1.30078 66.9527 1.1543 66.9527 0.978516ZM72.6957 9.11719C71.8363 9.11719 71.1371 8.83594 70.598 8.27344C70.059 7.70703 69.7895 6.95117 69.7895 6.00586V5.80664C69.7895 5.17773 69.9086 4.61719 70.1469 4.125C70.3891 3.62891 70.725 3.24219 71.1547 2.96484C71.5883 2.68359 72.057 2.54297 72.5609 2.54297C73.3852 2.54297 74.0258 2.81445 74.4828 3.35742C74.9398 3.90039 75.1684 4.67773 75.1684 5.68945V6.14062H70.8734C70.8891 6.76562 71.0707 7.27148 71.4184 7.6582C71.7699 8.04102 72.2152 8.23242 72.7543 8.23242C73.1371 8.23242 73.4613 8.1543 73.727 7.99805C73.9926 7.8418 74.225 7.63477 74.4242 7.37695L75.0863 7.89258C74.5551 8.70898 73.7582 9.11719 72.6957 9.11719ZM72.5609 3.43359C72.1234 3.43359 71.7562 3.59375 71.4594 3.91406C71.1625 4.23047 70.9789 4.67578 70.9086 5.25H74.0844V5.16797C74.0531 4.61719 73.9047 4.19141 73.6391 3.89062C73.3734 3.58594 73.0141 3.43359 72.5609 3.43359ZM82.2414 7.50586L83.4602 2.66016H84.5441L82.6984 9H81.8195L80.2785 4.19531L78.7785 9H77.8996L76.0598 2.66016H77.1379L78.3859 7.40625L79.8625 2.66016H80.7355L82.2414 7.50586ZM89.543 7.31836C89.543 7.02539 89.4316 6.79883 89.209 6.63867C88.9902 6.47461 88.6055 6.33398 88.0547 6.2168C87.5078 6.09961 87.0723 5.95898 86.748 5.79492C86.4277 5.63086 86.1895 5.43555 86.0332 5.20898C85.8809 4.98242 85.8047 4.71289 85.8047 4.40039C85.8047 3.88086 86.0234 3.44141 86.4609 3.08203C86.9023 2.72266 87.4648 2.54297 88.1484 2.54297C88.8672 2.54297 89.4492 2.72852 89.8945 3.09961C90.3438 3.4707 90.5684 3.94531 90.5684 4.52344H89.4785C89.4785 4.22656 89.3516 3.9707 89.0977 3.75586C88.8477 3.54102 88.5312 3.43359 88.1484 3.43359C87.7539 3.43359 87.4453 3.51953 87.2227 3.69141C87 3.86328 86.8887 4.08789 86.8887 4.36523C86.8887 4.62695 86.9922 4.82422 87.1992 4.95703C87.4062 5.08984 87.7793 5.2168 88.3184 5.33789C88.8613 5.45898 89.3008 5.60352 89.6367 5.77148C89.9727 5.93945 90.2207 6.14258 90.3809 6.38086C90.5449 6.61523 90.627 6.90234 90.627 7.24219C90.627 7.80859 90.4004 8.26367 89.9473 8.60742C89.4941 8.94727 88.9062 9.11719 88.1836 9.11719C87.6758 9.11719 87.2266 9.02734 86.8359 8.84766C86.4453 8.66797 86.1387 8.41797 85.916 8.09766C85.6973 7.77344 85.5879 7.42383 85.5879 7.04883H86.6719C86.6914 7.41211 86.8359 7.70117 87.1055 7.91602C87.3789 8.12695 87.7383 8.23242 88.1836 8.23242C88.5938 8.23242 88.9219 8.15039 89.168 7.98633C89.418 7.81836 89.543 7.5957 89.543 7.31836Z" fill="black"/>
</svg>
